<svg width="71" height="72" viewBox="0 0 71 72" fill="none" xmlns="http://www.w3.org/2000/svg">
<path d="M66.3027 0.0892365C66.035 0.0892365 65.9458 0.26771 65.7673 0.356946L32.3036 24.0939C31.9467 24.3616 31.4113 25.0755 31.1436 25.5217L29.9835 27.7526C36.4085 29.805 41.3165 34.713 43.369 41.138L45.5999 39.978C46.0461 39.7103 46.6707 39.2641 47.0277 38.8179L70.7646 5.35419C71.0323 4.90801 71.1215 4.55106 70.7646 4.19412L66.8382 0.26771C66.6597 0.0892366 66.4812 0 66.3027 0V0.0892365ZM23.6477 35.5161C17.0442 35.5161 11.9577 40.9596 11.9577 47.4738C11.9577 56.3083 7.04969 63.9826 0 68.0875C3.48022 70.0507 7.67434 71.1215 11.9577 71.1215C25.0755 71.1215 35.6946 60.5916 35.6946 47.3846C35.6946 40.7811 30.2512 35.4269 23.7369 35.4269L23.6477 35.5161Z" fill="#FFD705"/>
</svg>
