<svg width="17" height="18" viewBox="0 0 17 18" fill="none" xmlns="http://www.w3.org/2000/svg">
<path d="M8.49613 0.975159C3.81476 0.975159 0 4.78992 0 9.47128C0 14.1526 3.81476 17.9674 8.49613 17.9674C13.1775 17.9674 16.9923 14.1526 16.9923 9.47128C16.9923 4.78992 13.1775 0.975159 8.49613 0.975159ZM12.1919 12.5044C12.073 12.7083 11.8606 12.8188 11.6397 12.8188C11.5292 12.8188 11.4188 12.7933 11.3168 12.7253L8.68304 11.1535C8.02884 10.7627 7.54456 9.90459 7.54456 9.14843V5.66502C7.54456 5.31668 7.83343 5.02781 8.18177 5.02781C8.53011 5.02781 8.81898 5.31668 8.81898 5.66502V9.14843C8.81898 9.45429 9.07386 9.90459 9.33724 10.0575L11.971 11.6293C12.2769 11.8077 12.3789 12.1985 12.1919 12.5044Z" fill="white"/>
</svg>
