<svg width="58" height="60" viewBox="0 0 58 60" fill="none" xmlns="http://www.w3.org/2000/svg">
<path d="M56.7042 37.2097L51.5509 34.2339C52.0711 31.4274 52.0711 28.5484 51.5509 25.742L56.7042 22.7662C57.2969 22.4274 57.563 21.7258 57.3695 21.0726C56.0267 16.7662 53.7405 12.871 50.7526 9.62911C50.2929 9.13314 49.5429 9.01218 48.9622 9.35089L43.809 12.3267C41.6437 10.4638 39.1518 9.02427 36.4542 8.08073V2.14123C36.4542 1.46382 35.9825 0.871078 35.3171 0.725917C30.8776 -0.266015 26.3293 -0.217628 22.1075 0.725917C21.4422 0.871078 20.9704 1.46382 20.9704 2.14123V8.09282C18.2849 9.04847 15.793 10.488 13.6156 12.3388L8.4745 9.36298C7.88176 9.02427 7.14386 9.13314 6.68418 9.64121C3.69629 12.871 1.41001 16.7662 0.0672723 21.0847C-0.138372 21.7379 0.139853 22.4395 0.732592 22.7783L5.8858 25.754C5.36564 28.5605 5.36564 31.4395 5.8858 34.246L0.732592 37.2217C0.139853 37.5605 -0.126275 38.2621 0.0672723 38.9153C1.41001 43.2217 3.69629 47.1169 6.68418 50.3588C7.14386 50.8548 7.89386 50.9757 8.4745 50.637L13.6277 47.6612C15.793 49.5241 18.2849 50.9636 20.9825 51.9072V57.8588C20.9825 58.5362 21.4543 59.1289 22.1196 59.2741C26.5591 60.266 31.1075 60.2176 35.3292 59.2741C35.9946 59.1289 36.4663 58.5362 36.4663 57.8588V51.9072C39.1518 50.9515 41.6437 49.512 43.8211 47.6612L48.9743 50.637C49.5671 50.9757 50.305 50.8669 50.7647 50.3588C53.7526 47.129 56.0388 43.2338 57.3816 38.9153C57.563 38.25 57.2969 37.5484 56.7042 37.2097ZM28.7123 39.6653C23.3777 39.6653 19.0349 35.3226 19.0349 29.9879C19.0349 24.6532 23.3777 20.3105 28.7123 20.3105C34.047 20.3105 38.3897 24.6532 38.3897 29.9879C38.3897 35.3226 34.047 39.6653 28.7123 39.6653Z" fill="#FFD705"/>
</svg>
