<svg width="89" height="54" viewBox="0 0 89 54" fill="none" xmlns="http://www.w3.org/2000/svg">
<path d="M22.2217 22.2217V31.1103H66.665V22.2217C66.665 17.319 70.651 13.333 75.5537 13.333H79.998C79.998 5.97207 74.0259 0 66.665 0H22.2217C14.8607 0 8.88867 5.97207 8.88867 13.333H13.333C18.2357 13.333 22.2217 17.319 22.2217 22.2217ZM79.998 17.7773H75.5537C73.0954 17.7773 71.1094 19.7634 71.1094 22.2217V35.5547H17.7773V22.2217C17.7773 19.7634 15.7913 17.7773 13.333 17.7773H8.88867C3.98601 17.7773 0 21.7634 0 26.666C0 29.9437 1.80551 32.777 4.44433 34.3186V51.1098C4.44433 52.332 5.44431 53.332 6.6665 53.332H15.5552C16.7774 53.332 17.7773 52.332 17.7773 51.1098V48.8877H71.1094V51.1098C71.1094 52.332 72.1093 53.332 73.3315 53.332H82.2202C83.4424 53.332 84.4424 52.332 84.4424 51.1098V34.3186C87.0812 32.777 88.8867 29.9437 88.8867 26.666C88.8867 21.7634 84.9007 17.7773 79.998 17.7773Z" fill="#FFD705"/>
</svg>
