<svg width="78" height="70" viewBox="0 0 78 70" fill="none" xmlns="http://www.w3.org/2000/svg">
<g clip-path="url(#clip0_2029_71)">
<path d="M77.2501 43.5C77.2501 41.1625 75.3376 39.25 73.0001 39.25H64.5001V47.75H73.0001C75.3376 47.75 77.2501 45.8375 77.2501 43.5Z" fill="#FFD705"/>
<path d="M73.0001 56.25H64.5001V64.75H73.0001C75.3376 64.75 77.2501 62.8375 77.2501 60.5C77.2501 58.1625 75.3376 56.25 73.0001 56.25Z" fill="#FFD705"/>
<path d="M56 34.9999H47.5C42.825 34.9999 39 38.8249 39 43.4999H34.75C32.4125 43.4999 30.5 45.4124 30.5 47.7499V56.2499C30.5 58.5874 32.4125 60.4999 34.75 60.4999H39C39 65.1749 42.825 68.9999 47.5 68.9999H56C58.3375 68.9999 60.25 67.0874 60.25 64.7499V39.2499C60.25 36.9124 58.3375 34.9999 56 34.9999Z" fill="#FFD705"/>
<path d="M9.25 39.25C9.25 34.575 13.075 30.75 17.75 30.75H24.125C32.3275 30.75 39 24.0775 39 15.875C39 7.6725 32.3275 1 24.125 1H9.25C6.9125 1 5 2.9125 5 5.25C5 7.5875 6.9125 9.5 9.25 9.5H24.125C27.6525 9.5 30.5 12.3475 30.5 15.875C30.5 19.4025 27.6525 22.25 24.125 22.25H17.75C8.3575 22.25 0.75 29.8575 0.75 39.25C0.75 48.6425 8.3575 56.25 17.75 56.25H26.25V47.75H17.75C13.075 47.75 9.25 43.925 9.25 39.25Z" fill="#FFD705"/>
</g>
<defs>
<clipPath id="clip0_2029_71">
<rect width="78" height="70" fill="white"/>
</clipPath>
</defs>
</svg>
