<svg width="67" height="67" viewBox="0 0 67 67" fill="none" xmlns="http://www.w3.org/2000/svg">
<path d="M1.43945 18.8134C0.916016 18.5515 0.545247 18.268 0.327148 17.9626C0.10905 17.6572 0 17.2426 0 16.719C0 16.1955 0.10905 15.781 0.327148 15.4755C0.545247 15.1701 0.916016 14.8866 1.43945 14.6247L29.2253 0.750037C30.3594 0.197377 31.7843 -0.0498652 33.5 0.0083111C35.2157 -0.0498652 36.6406 0.197377 37.7747 0.750037L65.5605 14.6247C66.084 14.8866 66.4547 15.1701 66.6728 15.4755C66.891 15.781 67 16.1955 67 16.719C67 17.2426 66.891 17.6572 66.6728 17.9626C66.4547 18.268 66.084 18.5515 65.5605 18.8134L37.7747 32.6881C36.6406 33.2407 35.2157 33.4879 33.5 33.4299C31.7843 33.4879 30.3594 33.2407 29.2253 32.6881L1.43945 18.8134ZM1.43945 52.4094C0.916016 52.1475 0.545247 51.864 0.327148 51.5586C0.10905 51.2531 0 50.8386 0 50.3151C0 49.7915 0.10905 49.3769 0.327148 49.0715C0.545247 48.7661 0.916016 48.4826 1.43945 48.2207L8.41862 44.7303L29.2253 55.1145C30.3884 55.6671 31.8133 55.8998 33.5 55.8126C35.1867 55.8998 36.6116 55.6671 37.7747 55.1145L58.5813 44.7303L65.5605 48.2207C66.084 48.4826 66.4547 48.7661 66.6728 49.0715C66.891 49.3769 67 49.7915 67 50.3151C67 50.8386 66.891 51.2531 66.6728 51.5586C66.4547 51.864 66.084 52.1475 65.5605 52.4094L37.7747 66.2841C36.6116 66.8367 35.1867 67.0694 33.5 66.9822C31.8133 67.0694 30.3884 66.8367 29.2253 66.2841L1.43945 52.4094ZM1.43945 35.6549C0.916016 35.3932 0.545247 35.1096 0.327148 34.8041C0.10905 34.4987 0 34.0843 0 33.5607C0 33.0371 0.10905 32.6226 0.327148 32.3172C0.545247 32.0118 0.916016 31.7282 1.43945 31.4664L8.41862 27.9759L29.2253 38.36C30.3884 38.9128 31.8133 39.1455 33.5 39.0582C35.1867 39.1455 36.6116 38.9128 37.7747 38.36L58.5813 27.9759L65.5605 31.4664C66.084 31.7282 66.4547 32.0118 66.6728 32.3172C66.891 32.6226 67 33.0371 67 33.5607C67 34.0843 66.891 34.4987 66.6728 34.8041C66.4547 35.1096 66.084 35.3932 65.5605 35.6549L37.7747 49.5297C36.6116 50.0823 35.1867 50.3151 33.5 50.2277C31.8133 50.3151 30.3884 50.0823 29.2253 49.5297L1.43945 35.6549Z" fill="#FFD705"/>
</svg>
