<svg width="247" height="47" viewBox="0 0 247 47" fill="none" xmlns="http://www.w3.org/2000/svg">
<path d="M19.1424 35.8684C18.7846 35.4088 18.6454 34.8293 18.7448 34.2498C18.8442 33.6703 19.1821 33.1707 19.6592 32.871C19.4405 32.4714 19.3213 32.0317 19.361 31.5721C19.4405 30.653 20.0766 29.9136 20.9115 29.6538C20.6729 29.2342 20.5736 28.7546 20.6332 28.275C20.7127 27.5956 21.0904 27.0361 21.6271 26.6765C21.3488 26.3168 21.1898 25.8772 21.1898 25.3976C21.1898 24.918 21.3488 24.4984 21.6072 24.1387C21.5277 24.1387 21.4681 24.1387 21.3885 24.1387C20.6928 24.1387 20.0567 23.9588 19.4803 23.6191C19.361 24.0588 19.202 24.5383 18.9635 25.0379C18.4268 26.1769 17.6913 27.0162 16.757 27.5557L13.3778 40.1246L18.5063 42.3427L20.0766 36.5078C19.6989 36.4279 19.3809 36.1881 19.1424 35.8684Z" fill="#FFD705"/>
<path d="M34.7861 12.1295L32.9971 11.6499L30.7509 11.0504L30.2738 12.8489C30.075 13.3284 28.6438 13.3684 28.1469 13.2285C27.1331 12.9488 26.3181 12.2694 26.4175 11.7298L26.8747 9.99137L22.919 8.99225C18.2875 7.75334 13.5169 10.5309 12.3043 15.1868L14.0536 15.6464C15.4649 10.371 21.1698 12.4892 20.6331 14.4674L20.156 16.2658L19.8579 17.3849L20.1759 17.7845L23.6148 22.0607L23.6545 22.1207L24.4894 18.9835L24.8671 17.5847L24.9466 17.265C25.1255 16.7454 26.1194 16.5456 27.1729 16.8453C27.6897 16.9852 28.9023 17.7246 28.8426 18.2441L28.3656 20.0425L32.4007 21.1216L34.7861 12.1295Z" fill="#FFD705"/>
<path d="M25.9802 23.959C25.9603 23.959 25.9206 23.959 25.9007 23.959C25.1453 23.9989 24.1912 24.0589 23.416 24.0989C23.3563 24.0989 23.2768 24.0989 23.2172 24.1188C22.5413 24.1588 22.0046 24.7183 22.0046 25.4177C22.0046 25.7974 22.1637 26.1371 22.442 26.3769C22.5612 26.3569 22.6805 26.3369 22.7997 26.3369H22.8196C22.8594 26.3369 22.8991 26.3369 22.9389 26.3369C23.734 26.3769 24.7279 26.4368 25.5628 26.4968L26.0796 26.4568C26.7157 26.3968 27.2126 25.8573 27.2126 25.2179C27.2126 24.5185 26.656 23.959 25.9802 23.959Z" fill="white"/>
<path d="M25.7218 27.3561C25.682 27.3561 25.6224 27.3561 25.5826 27.3561C24.7279 27.2962 23.6943 27.2363 22.8991 27.1963C22.8793 27.1963 22.8395 27.1963 22.8196 27.1963C22.7401 27.1963 22.6805 27.1963 22.6209 27.2163C22.5215 27.2363 22.4221 27.2562 22.3227 27.2962C21.8655 27.476 21.5475 27.8957 21.4679 28.3952C21.4083 28.8548 21.6071 29.2944 21.9251 29.5942C21.945 29.5942 21.9649 29.5942 21.9649 29.5942C22.76 29.6142 23.6943 29.6341 24.4695 29.6541C24.867 29.6741 25.2646 29.794 25.6025 30.0138H25.6224C25.6423 30.0138 25.6423 30.0138 25.6622 30.0138C26.338 30.0138 26.8946 29.5142 26.9741 28.8348C27.0337 28.0755 26.4771 27.3961 25.7218 27.3561Z" fill="white"/>
<path d="M24.4297 30.4935C23.5949 30.4735 22.5612 30.4336 21.7264 30.4136C21.6866 30.4136 21.6468 30.4136 21.627 30.4136C21.6071 30.4136 21.6071 30.4136 21.5872 30.4136C21.5673 30.4136 21.5673 30.4136 21.5475 30.4136C20.8517 30.4136 20.2554 30.9531 20.1958 31.6725C20.156 32.0122 20.2753 32.3519 20.4542 32.6116C20.5536 32.5917 20.6728 32.5917 20.7722 32.5917C20.8517 32.5917 20.9312 32.5917 21.0108 32.6116C21.0505 32.6116 21.1101 32.6316 21.1499 32.6316C21.8854 32.7116 22.7998 32.8115 23.5352 32.9114C23.8334 32.9513 24.1117 33.0513 24.3502 33.1911H24.39C25.0857 33.1911 25.6423 32.6716 25.7019 31.9722C25.7417 31.5526 25.5628 31.1529 25.2845 30.8732C25.0658 30.6334 24.7478 30.4935 24.4297 30.4935Z" fill="white"/>
<path d="M24.072 33.9702C23.8931 33.8103 23.6744 33.7104 23.416 33.6904C23.0781 33.6504 22.7004 33.6105 22.3029 33.5705C21.8059 33.5106 21.3289 33.4506 20.9114 33.4106H20.8916C20.8518 33.4106 20.812 33.4106 20.7723 33.4106H20.7524C20.5536 33.4106 20.3747 33.4506 20.1958 33.5505C19.8579 33.7104 19.6194 34.0301 19.5399 34.4297C19.4405 35.0092 19.7585 35.5488 20.2753 35.7686C20.3946 35.8085 20.5139 35.8485 20.653 35.8685L23.1974 36.0883C23.2371 36.0883 23.257 36.0883 23.2968 36.0883C23.8732 36.0883 24.3702 35.6687 24.4695 35.1091C24.5491 34.6496 24.3702 34.2299 24.072 33.9702Z" fill="white"/>
<path d="M15.6835 28.0356L15.8028 27.5561L15.9419 27.0565C16.3991 26.8567 16.7768 26.5969 17.0948 26.2772C18.7645 24.6786 18.9037 22.001 18.9037 22.001C19.6392 23.04 20.5535 23.3398 21.3486 23.3398C22.3425 23.3398 23.1575 22.9002 23.1575 22.9002L19.3211 18.0644L19.3012 18.0444L14.2324 19.4232L10.555 26.2772L10.1177 26.517L9.6804 26.7568L5.84399 28.815V29.6143C5.84399 32.2919 6.79813 34.8297 8.46786 36.7879L14.133 33.8305L15.6835 28.0356Z" fill="white"/>
<path d="M35.1638 5.85485V0.539525H32.2219V4.61594L21.3686 0L10.1973 4.75581L0 8.99209L0.834866 11.0303L3.27983 9.99121V10.7106V23.3994V29.6139C3.27983 29.8138 3.27983 29.9936 3.29971 30.1934C3.41898 33.0909 4.45262 35.8085 6.14223 38.0065C7.51379 39.785 9.34255 41.2437 11.4893 42.1829L12.682 42.7024L17.8105 44.9205L21.3487 46.4591L31.2081 42.1829C36.1974 40.0248 39.4176 35.0891 39.4176 29.6139V23.3994V10.7106V10.0312L41.8029 11.0303L42.6378 8.99209L35.1638 5.85485ZM36.8733 10.7106V23.3994V29.6139C36.8733 34.05 34.2693 38.0465 30.2142 39.785L21.3686 43.6216L18.5062 42.3827L13.3777 40.1647L12.523 39.785C10.9328 39.0856 9.5612 38.0465 8.48781 36.7676C6.83795 34.8094 5.86394 32.2716 5.86394 29.594V28.7947V23.3794V10.7106V9.41172L21.3686 2.81752L31.228 7.01383L34.8258 8.53249L36.8733 9.41172V10.7106Z" fill="white"/>
<path d="M58.9029 21.3036V24.5592H50.8716V21.3036H58.9029ZM51.9882 13.3665V32.9538H48.0465V13.3665H51.9882ZM61.7549 13.3665V32.9538H57.8536V13.3665H61.7549Z" fill="#FFD705"/>
<path d="M72.3019 16.8642L68.0912 32.9538H63.9343L70.0553 13.3665H72.6517L72.3019 16.8642ZM75.6247 32.9538L71.3871 16.8642L70.997 13.3665H73.6337L79.8086 32.9538H75.6247ZM75.7727 25.6489V28.9179H66.9342V25.6489H75.7727Z" fill="#FFD705"/>
<path d="M95.3735 13.3665V32.9538H91.5663L85.4184 20.6983V32.9538H81.6785V13.3665H85.4318L91.6336 25.7565V13.3665H95.3735Z" fill="#FFD705"/>
<path d="M103.66 32.9538H100.203L100.23 29.6982H103.66C104.611 29.6982 105.351 29.5278 105.88 29.187C106.409 28.8462 106.781 28.3081 106.997 27.5726C107.221 26.8372 107.333 25.8731 107.333 24.6803V21.6265C107.333 20.7207 107.275 19.9539 107.158 19.3261C107.042 18.6893 106.844 18.1781 106.566 17.7925C106.288 17.3978 105.916 17.1064 105.45 16.918C104.983 16.7297 104.405 16.6355 103.714 16.6355H100.136V13.3665H103.714C104.844 13.3665 105.871 13.5503 106.795 13.9181C107.719 14.2858 108.512 14.8239 109.176 15.5324C109.84 16.2319 110.351 17.0974 110.71 18.1288C111.068 19.1602 111.248 20.335 111.248 21.6534V24.6803C111.248 26.0076 111.068 27.1825 110.71 28.2049C110.351 29.2273 109.84 30.0928 109.176 30.8013C108.521 31.5009 107.728 32.0345 106.795 32.4022C105.862 32.7699 104.817 32.9538 103.66 32.9538ZM102.49 13.3665V32.9538H98.5483V13.3665H102.49Z" fill="#FFD705"/>
<path d="M116.441 13.3665L119.427 22.1915L122.387 13.3665H126.678L121.405 25.8372V32.9538H117.436V25.8372L112.163 13.3665H116.441Z" fill="#FFD705"/>
<path d="M132.436 13.3665V32.9538H128.494V13.3665H132.436ZM138.57 21.6938V24.9494H131.44V21.6938H138.57ZM139.324 13.3665V16.6355H131.44V13.3665H139.324Z" fill="white"/>
<path d="M141.638 13.3665H147.92C149.229 13.3665 150.346 13.5907 151.27 14.0391C152.194 14.4876 152.902 15.1512 153.395 16.0301C153.889 16.9091 154.135 17.9943 154.135 19.2857C154.135 20.344 153.992 21.2498 153.705 22.0032C153.418 22.7476 153.01 23.3709 152.481 23.8731C151.951 24.3664 151.319 24.761 150.584 25.057L149.386 25.77H144.288L144.274 22.5009H147.812C148.351 22.5009 148.795 22.3844 149.144 22.1512C149.503 21.909 149.768 21.5727 149.938 21.1422C150.117 20.7028 150.207 20.1915 150.207 19.6086C150.207 18.9898 150.126 18.4606 149.965 18.0212C149.812 17.5727 149.566 17.2319 149.225 16.9987C148.893 16.7566 148.458 16.6355 147.92 16.6355H145.579V32.9538H141.638V13.3665ZM150.53 32.9538L146.938 24.2229L151.068 24.2094L154.741 32.7654V32.9538H150.53Z" fill="white"/>
<path d="M160.969 13.3665V32.9538H157.055V13.3665H160.969Z" fill="white"/>
<path d="M175.566 29.6982V32.9538H167.05V29.6982H175.566ZM168.274 13.3665V32.9538H164.333V13.3665H168.274ZM174.422 21.3036V24.4651H167.05V21.3036H174.422ZM175.539 13.3665V16.6355H167.05V13.3665H175.539Z" fill="white"/>
<path d="M191.561 13.3665V32.9538H187.754L181.606 20.6983V32.9538H177.866V13.3665H181.619L187.821 25.7565V13.3665H191.561Z" fill="white"/>
<path d="M199.848 32.9538H196.391L196.417 29.6982H199.848C200.799 29.6982 201.538 29.5278 202.068 29.187C202.597 28.8462 202.969 28.3081 203.184 27.5726C203.408 26.8372 203.521 25.8731 203.521 24.6803V21.6265C203.521 20.7207 203.462 19.9539 203.346 19.3261C203.229 18.6893 203.032 18.1781 202.754 17.7925C202.476 17.3978 202.103 17.1064 201.637 16.918C201.171 16.7297 200.592 16.6355 199.902 16.6355H196.323V13.3665H199.902C201.032 13.3665 202.059 13.5503 202.982 13.9181C203.906 14.2858 204.7 14.8239 205.364 15.5324C206.027 16.2319 206.538 17.0974 206.897 18.1288C207.256 19.1602 207.435 20.335 207.435 21.6534V24.6803C207.435 26.0076 207.256 27.1825 206.897 28.2049C206.538 29.2273 206.027 30.0928 205.364 30.8013C204.709 31.5009 203.915 32.0345 202.982 32.4022C202.05 32.7699 201.005 32.9538 199.848 32.9538ZM198.678 13.3665V32.9538H194.736V13.3665H198.678Z" fill="white"/>
<path d="M208.794 31.03C208.794 30.4381 208.991 29.9448 209.386 29.5502C209.781 29.1466 210.314 28.9448 210.987 28.9448C211.659 28.9448 212.193 29.1466 212.588 29.5502C212.982 29.9448 213.18 30.4381 213.18 31.03C213.18 31.6219 212.982 32.1152 212.588 32.5098C212.193 32.9044 211.659 33.1017 210.987 33.1017C210.314 33.1017 209.781 32.9044 209.386 32.5098C208.991 32.1152 208.794 31.6219 208.794 31.03Z" fill="white"/>
<path d="M226.027 26.4292H229.942C229.888 27.9 229.592 29.1421 229.054 30.1556C228.516 31.1601 227.749 31.9224 226.753 32.4426C225.767 32.9627 224.574 33.2228 223.175 33.2228C222.09 33.2228 221.126 33.0435 220.283 32.6847C219.44 32.317 218.722 31.7789 218.13 31.0704C217.538 30.3619 217.09 29.4874 216.785 28.4471C216.489 27.3978 216.341 26.1915 216.341 24.8283V21.5054C216.341 20.1422 216.498 18.936 216.812 17.8866C217.135 16.8373 217.592 15.9584 218.184 15.2499C218.785 14.5324 219.507 13.9943 220.35 13.6355C221.202 13.2678 222.162 13.084 223.229 13.084C224.655 13.084 225.848 13.353 226.807 13.8912C227.767 14.4293 228.507 15.214 229.027 16.2454C229.556 17.2678 229.875 18.5189 229.982 19.9987H226.054C226.027 19.066 225.919 18.3351 225.731 17.8059C225.552 17.2678 225.265 16.8911 224.87 16.6759C224.475 16.4517 223.928 16.3396 223.229 16.3396C222.709 16.3396 222.26 16.4337 221.884 16.6221C221.507 16.8014 221.197 17.0929 220.955 17.4965C220.713 17.9001 220.534 18.4292 220.417 19.0839C220.31 19.7386 220.256 20.5368 220.256 21.4785V24.8283C220.256 25.752 220.305 26.5413 220.404 27.196C220.502 27.8417 220.659 28.3708 220.875 28.7834C221.09 29.196 221.381 29.4964 221.749 29.6847C222.126 29.8731 222.601 29.9672 223.175 29.9672C223.839 29.9672 224.372 29.8686 224.776 29.6713C225.188 29.474 225.493 29.1197 225.691 28.6085C225.888 28.0973 226 27.3709 226.027 26.4292Z" fill="white"/>
<path d="M239.493 16.8642L235.283 32.9538H231.126L237.247 13.3665H239.843L239.493 16.8642ZM242.816 32.9538L238.579 16.8642L238.188 13.3665H240.825L247 32.9538H242.816ZM242.964 25.6489V28.9179H234.126V25.6489H242.964Z" fill="white"/>
</svg>
