<svg width="270" height="61" viewBox="0 0 270 61" fill="none" xmlns="http://www.w3.org/2000/svg">
<path d="M24.9107 46.6767C24.4451 46.0786 24.264 45.3245 24.3934 44.5704C24.5227 43.8163 24.9625 43.1662 25.5833 42.7761C25.2987 42.2561 25.1435 41.684 25.1953 41.0859C25.2987 39.8897 26.1265 38.9276 27.213 38.5895C26.9025 38.0434 26.7732 37.4193 26.8508 36.7952C26.9543 35.9111 27.4458 35.183 28.1442 34.7149C27.782 34.2469 27.5751 33.6748 27.5751 33.0507C27.5751 32.4266 27.782 31.8805 28.1183 31.4124C28.0149 31.4124 27.9373 31.4124 27.8338 31.4124C26.9284 31.4124 26.1006 31.1784 25.3505 30.7363C25.1953 31.3084 24.9883 31.9325 24.6779 32.5826C23.9795 34.0648 23.0224 35.157 21.8066 35.8591L17.4091 52.2156L24.083 55.102L26.1265 47.5089C25.635 47.4048 25.2211 47.0928 24.9107 46.6767Z" fill="#FFD705"/>
<path d="M45.2686 15.7844L42.9405 15.1603L40.0174 14.3801L39.3966 16.7205C39.1379 17.3446 37.2754 17.3966 36.6287 17.2146C35.3095 16.8505 34.2489 15.9664 34.3782 15.2643L34.9732 13.0019L29.8255 11.7017C23.7983 10.0895 17.5901 13.704 16.0122 19.763L18.2885 20.3611C20.1251 13.496 27.5492 16.2524 26.8507 18.8268L26.2299 21.1672L25.8419 22.6234L26.2558 23.1435L30.7309 28.7083L30.7826 28.7863L31.8691 24.7037L32.3606 22.8834L32.464 22.4674C32.6968 21.7913 33.9902 21.5312 35.3612 21.9213C36.0338 22.1033 37.6117 23.0655 37.5341 23.7416L36.9133 26.0819L42.1644 27.4861L45.2686 15.7844Z" fill="#FFD705"/>
<path d="M33.8092 31.1787C33.7833 31.1787 33.7316 31.1787 33.7057 31.1787C32.7228 31.2307 31.4811 31.3087 30.4723 31.3607C30.3947 31.3607 30.2912 31.3607 30.2136 31.3867C29.3341 31.4387 28.6357 32.1669 28.6357 33.077C28.6357 33.5711 28.8426 34.0131 29.2048 34.3252C29.36 34.2992 29.5152 34.2732 29.6704 34.2732H29.6962C29.748 34.2732 29.7997 34.2732 29.8515 34.2732C30.8862 34.3252 32.1796 34.4032 33.266 34.4812L33.9386 34.4292C34.7663 34.3512 35.413 33.6491 35.413 32.817C35.413 31.9068 34.6887 31.1787 33.8092 31.1787Z" fill="white" fill-opacity="0.75"/>
<path d="M33.4729 35.5996C33.4212 35.5996 33.3436 35.5996 33.2918 35.5996C32.1795 35.5216 30.8344 35.4436 29.7997 35.3916C29.7738 35.3916 29.7221 35.3916 29.6962 35.3916C29.5927 35.3916 29.5151 35.3916 29.4375 35.4176C29.3082 35.4436 29.1788 35.4696 29.0495 35.5216C28.4546 35.7557 28.0407 36.3017 27.9372 36.9518C27.8596 37.5499 28.1183 38.122 28.5322 38.5121C28.558 38.5121 28.5839 38.5121 28.5839 38.5121C29.6186 38.5381 30.8344 38.5641 31.8432 38.5901C32.3606 38.6161 32.8779 38.7721 33.3177 39.0582H33.3436C33.3694 39.0582 33.3694 39.0582 33.3953 39.0582C34.2748 39.0582 34.9991 38.4081 35.1026 37.5239C35.1802 36.5358 34.4559 35.6516 33.4729 35.5996Z" fill="white" fill-opacity="0.75"/>
<path d="M31.7916 39.6826C30.7051 39.6566 29.36 39.6046 28.2735 39.5786C28.2218 39.5786 28.1701 39.5786 28.1442 39.5786C28.1183 39.5786 28.1183 39.5786 28.0925 39.5786C28.0666 39.5786 28.0666 39.5786 28.0407 39.5786C27.1354 39.5786 26.3593 40.2807 26.2817 41.2169C26.23 41.6589 26.3852 42.101 26.618 42.439C26.7473 42.413 26.9026 42.413 27.0319 42.413C27.1354 42.413 27.2388 42.413 27.3423 42.439C27.394 42.439 27.4716 42.4651 27.5234 42.4651C28.4805 42.5691 29.6704 42.6991 30.6275 42.8291C31.0155 42.8811 31.3777 43.0111 31.6881 43.1932H31.7398C32.6452 43.1932 33.3695 42.5171 33.4471 41.6069C33.4988 41.0608 33.266 40.5408 32.9039 40.1767C32.6193 39.8647 32.2054 39.6826 31.7916 39.6826Z" fill="white" fill-opacity="0.75"/>
<path d="M31.3259 44.2066C31.0931 43.9986 30.8086 43.8686 30.4723 43.8426C30.0325 43.7906 29.5411 43.7386 29.0237 43.6865C28.377 43.6085 27.7562 43.5305 27.213 43.4785H27.1871C27.1354 43.4785 27.0836 43.4785 27.0319 43.4785H27.006C26.7473 43.4785 26.5145 43.5305 26.2817 43.6605C25.842 43.8686 25.5316 44.2846 25.4281 44.8047C25.2987 45.5588 25.7126 46.2609 26.3852 46.547C26.5404 46.599 26.6956 46.651 26.8767 46.677L30.1877 46.963C30.2395 46.963 30.2654 46.963 30.3171 46.963C31.0673 46.963 31.7139 46.417 31.8433 45.6888C31.9468 45.0908 31.7139 44.5447 31.3259 44.2066Z" fill="white" fill-opacity="0.75"/>
<path d="M20.4097 36.4839L20.5649 35.8598L20.746 35.2097C21.3409 34.9497 21.8324 34.6116 22.2463 34.1955C24.4192 32.1152 24.6003 28.6307 24.6003 28.6307C25.5574 29.9829 26.7473 30.373 27.782 30.373C29.0754 30.373 30.136 29.8009 30.136 29.8009L25.1435 23.5079L25.1176 23.4819L18.5214 25.2762L13.7358 34.1955L13.1667 34.5076L12.5977 34.8196L7.60518 37.498V38.5382C7.60518 42.0227 8.84683 45.3252 11.0197 47.8736L18.392 44.025L20.4097 36.4839Z" fill="white" fill-opacity="0.75"/>
<path d="M45.76 7.61915V0.702106H41.9316V6.00691L27.8078 0L13.2701 6.18893L0 11.7018L1.08644 14.3542L4.26818 13.002V13.9381V30.4506V38.5378C4.26818 38.7978 4.26818 39.0319 4.29404 39.2919C4.44925 43.0625 5.79437 46.599 7.99313 49.4595C9.778 51.7738 12.1578 53.6721 14.9516 54.8943L16.5036 55.5704L23.1775 58.4568L27.7819 60.4591L40.6123 54.8943C47.1051 52.0859 51.2957 45.6629 51.2957 38.5378V30.4506V13.9381V13.054L54.3998 14.3542L55.4863 11.7018L45.76 7.61915ZM47.9846 13.9381V30.4506V38.5378C47.9846 44.3107 44.596 49.5115 39.319 51.7738L27.8078 56.7666L24.0829 55.1543L17.409 52.2679L16.2967 51.7738C14.2273 50.8637 12.4424 49.5115 11.0455 47.8472C8.8985 45.2988 7.63098 41.9963 7.63098 38.5118V37.4717V30.4246V13.9381V12.2478L27.8078 3.66655L40.6382 9.12738L45.3203 11.1037L47.9846 12.2478V13.9381Z" fill="white" fill-opacity="0.75"/>
<path d="M76.6528 27.7235V31.9601H66.2013V27.7235H76.6528ZM67.6543 17.3945V42.8842H62.5249V17.3945H67.6543ZM80.3642 17.3945V42.8842H75.2873V17.3945H80.3642Z" fill="#FFD705"/>
<path d="M94.0894 21.9463L88.6098 42.8842H83.2003L91.1658 17.3945H94.5446L94.0894 21.9463ZM98.4136 42.8842L92.899 21.9463L92.3913 17.3945H95.8226L103.858 42.8842H98.4136ZM98.6061 33.3781V37.6322H87.1043V33.3781H98.6061Z" fill="#FFD705"/>
<path d="M124.113 17.3945V42.8842H119.159L111.158 26.9357V42.8842H106.292V17.3945H111.176L119.247 33.5182V17.3945H124.113Z" fill="#FFD705"/>
<path d="M134.897 42.8842H130.398L130.433 38.6476H134.897C136.135 38.6476 137.097 38.4259 137.786 37.9824C138.475 37.5389 138.959 36.8386 139.239 35.8816C139.531 34.9245 139.677 33.6699 139.677 32.1176V28.1436C139.677 26.9648 139.601 25.967 139.449 25.15C139.297 24.3213 139.041 23.6561 138.679 23.1542C138.317 22.6407 137.833 22.2614 137.226 22.0163C136.619 21.7712 135.866 21.6487 134.967 21.6487H130.311V17.3945H134.967C136.438 17.3945 137.774 17.6338 138.977 18.1123C140.179 18.5908 141.212 19.2911 142.075 20.2131C142.939 21.1235 143.604 22.2497 144.071 23.5919C144.538 24.9341 144.771 26.463 144.771 28.1786V32.1176C144.771 33.845 144.538 35.3739 144.071 36.7044C143.604 38.0349 142.939 39.1612 142.075 40.0832C141.223 40.9935 140.19 41.688 138.977 42.1665C137.763 42.645 136.403 42.8842 134.897 42.8842ZM133.374 17.3945V42.8842H128.245V17.3945H133.374Z" fill="#FFD705"/>
<path d="M151.529 17.3945L155.415 28.8789L159.267 17.3945H164.851L157.989 33.6232V42.8842H152.824V33.6232L145.962 17.3945H151.529Z" fill="#FFD705"/>
<path d="M172.344 17.3945V42.8842H167.215V17.3945H172.344ZM180.327 28.2312V32.4678H171.049V28.2312H180.327ZM181.308 17.3945V21.6487H171.049V17.3945H181.308Z" fill="white" fill-opacity="0.75"/>
<path d="M184.319 17.3945H192.494C194.198 17.3945 195.651 17.6863 196.854 18.2699C198.056 18.8534 198.978 19.7171 199.62 20.8609C200.262 22.0046 200.582 23.4168 200.582 25.0975C200.582 26.4747 200.396 27.6534 200.022 28.6338C199.649 29.6025 199.118 30.4137 198.429 31.0672C197.741 31.7092 196.918 32.2227 195.961 32.6078L194.403 33.5357H187.768L187.75 29.2816H192.354C193.055 29.2816 193.632 29.1298 194.088 28.8264C194.554 28.5113 194.899 28.0736 195.12 27.5134C195.354 26.9415 195.471 26.2762 195.471 25.5176C195.471 24.7123 195.365 24.0237 195.155 23.4518C194.957 22.8683 194.636 22.4248 194.193 22.1213C193.761 21.8062 193.195 21.6487 192.494 21.6487H189.448V42.8842H184.319V17.3945ZM195.891 42.8842L191.216 31.5224L196.591 31.5049L201.37 42.6392V42.8842H195.891Z" fill="white" fill-opacity="0.75"/>
<path d="M209.476 17.3945V42.8842H204.381V17.3945H209.476Z" fill="white" fill-opacity="0.75"/>
<path d="M228.471 38.6476V42.8842H217.389V38.6476H228.471ZM218.982 17.3945V42.8842H213.853V17.3945H218.982ZM226.983 27.7235V31.8375H217.389V27.7235H226.983ZM228.436 17.3945V21.6487H217.389V17.3945H228.436Z" fill="white" fill-opacity="0.75"/>
<path d="M249.286 17.3945V42.8842H244.332L236.331 26.9357V42.8842H231.464V17.3945H236.349L244.419 33.5182V17.3945H249.286Z" fill="white" fill-opacity="0.75"/>
<path d="M260.07 42.8842H255.571L255.606 38.6476H260.07C261.307 38.6476 262.27 38.4259 262.959 37.9824C263.647 37.5389 264.132 36.8386 264.412 35.8816C264.704 34.9245 264.849 33.6699 264.849 32.1176V28.1436C264.849 26.9648 264.774 25.967 264.622 25.15C264.47 24.3213 264.213 23.6561 263.852 23.1542C263.49 22.6407 263.005 22.2614 262.399 22.0163C261.792 21.7712 261.039 21.6487 260.14 21.6487H255.483V17.3945H260.14C261.611 17.3945 262.947 17.6338 264.149 18.1123C265.351 18.5908 266.384 19.2911 267.248 20.2131C268.112 21.1235 268.777 22.2497 269.244 23.5919C269.71 24.9341 269.944 26.463 269.944 28.1786V32.1176C269.944 33.845 269.71 35.3739 269.244 36.7044C268.777 38.0349 268.112 39.1612 267.248 40.0832C266.396 40.9935 265.363 41.688 264.149 42.1665C262.935 42.645 261.576 42.8842 260.07 42.8842ZM258.547 17.3945V42.8842H253.418V17.3945H258.547Z" fill="white" fill-opacity="0.75"/>
</svg>