<svg width="14" height="19" viewBox="0 0 14 19" fill="none" xmlns="http://www.w3.org/2000/svg">
<path d="M5.94964 18.3014C0.931466 11.0265 0 10.2799 0 7.60628C0 3.944 2.96884 0.975159 6.63112 0.975159C10.2934 0.975159 13.2622 3.944 13.2622 7.60628C13.2622 10.2799 12.3308 11.0265 7.31261 18.3014C6.9833 18.7771 6.27891 18.7771 5.94964 18.3014ZM6.63112 10.3692C8.15707 10.3692 9.39409 9.13223 9.39409 7.60628C9.39409 6.08033 8.15707 4.84331 6.63112 4.84331C5.10517 4.84331 3.86815 6.08033 3.86815 7.60628C3.86815 9.13223 5.10517 10.3692 6.63112 10.3692Z" fill="white"/>
</svg>
