<svg width="17" height="18" viewBox="0 0 17 18" fill="none" xmlns="http://www.w3.org/2000/svg">
<path d="M12.5695 17.1028C9.23722 17.0985 6.04262 15.7728 3.68631 13.4165C1.32999 11.0602 0.00431929 7.86555 0 4.53323C0 3.53746 0.395567 2.58248 1.09968 1.87837C1.80379 1.17425 2.75877 0.778688 3.75454 0.778688C3.9654 0.777082 4.17591 0.796219 4.38302 0.835823C4.58324 0.865451 4.78007 0.914659 4.97069 0.982739C5.10474 1.02978 5.22421 1.11099 5.31725 1.21835C5.4103 1.32572 5.47371 1.45551 5.50122 1.59489L6.61942 6.49212C6.64956 6.62505 6.64593 6.76341 6.60886 6.89458C6.57179 7.02574 6.50246 7.14554 6.40721 7.24303C6.3011 7.3573 6.29294 7.36546 5.289 7.88783C6.09296 9.65153 7.50353 11.0679 9.26392 11.8791C9.79445 10.867 9.80262 10.8588 9.91688 10.7527C10.0144 10.6574 10.1342 10.5881 10.2653 10.5511C10.3965 10.514 10.5349 10.5104 10.6678 10.5405L15.565 11.6587C15.6999 11.69 15.8247 11.7551 15.9275 11.8479C16.0303 11.9407 16.1078 12.0582 16.1527 12.1892C16.2216 12.383 16.2735 12.5823 16.3078 12.7851C16.3406 12.9902 16.357 13.1976 16.3567 13.4054C16.3417 14.3969 15.935 15.3422 15.2255 16.0349C14.5159 16.7276 13.5611 17.1115 12.5695 17.1028Z" fill="white"/>
</svg>
