<svg width="60" height="69" viewBox="0 0 60 69" fill="none" xmlns="http://www.w3.org/2000/svg">
<g clip-path="url(#clip0_2029_72)">
<path d="M56.0867 8.66618L48.49 1.06952C45.695 -1.72548 41.1441 -1.72548 38.3491 1.06952L28.2083 11.2103L35.805 18.807L43.4016 11.2103L56.0867 23.8954C60.2792 19.667 60.2792 12.8587 56.0867 8.66618Z" fill="#FFD705"/>
<path d="M6.67236 40.3422C8.78652 42.4564 12.1907 42.4564 14.269 40.3422L23.1199 31.4914L15.5232 23.8589L6.67236 32.7097C4.55819 34.8239 4.55819 38.2281 6.67236 40.3422Z" fill="#FFD705"/>
<path d="M40.8931 18.8069L38.349 21.351L35.8048 23.8952L24.4098 12.5002C22.2956 10.3502 18.8915 10.3502 16.8131 12.4644C14.699 14.5785 14.699 17.9827 16.8131 20.061L28.2081 31.456L25.664 34.0002L2.87396 56.7902C0.07896 59.5852 0.07896 64.136 2.87396 66.931C5.66896 69.726 10.2198 69.726 13.0148 66.931L45.9456 34.0002C47.3431 35.3977 49.6006 35.3977 50.9981 34.0002C52.3956 32.6027 52.3956 30.3452 50.9981 28.9477L40.8931 18.8069Z" fill="#FFD705"/>
</g>
<defs>
<clipPath id="clip0_2029_72">
<rect width="60" height="69" fill="white"/>
</clipPath>
</defs>
</svg>
