<svg width="42" height="31" viewBox="0 0 42 31" fill="none" xmlns="http://www.w3.org/2000/svg">
<path d="M8.90757 30.5495C6.40641 30.5495 4.29477 29.7305 2.57266 28.0925C0.89155 26.4953 0.0509949 24.3863 0.0509949 21.7655C0.0509949 18.5712 1.40408 15.0085 4.11026 11.0771C6.85744 7.18675 10.5067 3.70588 15.058 0.634521L16.9646 2.53876C15.2015 4.42253 13.8074 6.16296 12.7823 7.76007C11.7983 9.31622 11.3062 10.5857 11.3062 11.5686C11.3062 12.3876 11.6342 13.0633 12.2903 13.5956C12.4953 13.8004 13.0488 14.2918 13.9509 15.0699C14.894 15.848 15.714 16.7694 16.4111 17.8341C17.0261 18.817 17.3336 20.1274 17.3336 21.7655C17.3336 24.3454 16.5546 26.4544 14.9965 28.0925C13.3564 29.7305 11.3267 30.5495 8.90757 30.5495ZM33.3247 30.5495C30.7415 30.5495 28.6299 29.7305 26.9898 28.0925C25.3496 26.4544 24.5296 24.3454 24.5296 21.7655C24.5296 18.4893 25.8622 14.9266 28.5274 11.0771C31.2745 7.18675 34.9238 3.70588 39.4751 0.634521L41.3817 2.53876C39.6186 4.42253 38.2245 6.16296 37.1994 7.76007C36.2154 9.31622 35.7233 10.5857 35.7233 11.5686C35.7233 12.3876 36.0513 13.0633 36.7074 13.5956C36.9124 13.8004 37.4659 14.2918 38.368 15.0699C39.3111 15.848 40.1311 16.7694 40.8282 17.8341C41.4432 18.817 41.7507 20.1274 41.7507 21.7655C41.7507 24.3454 40.9717 26.4544 39.4136 28.0925C37.7735 29.7305 35.7438 30.5495 33.3247 30.5495Z" fill="#BFBFBF" fill-opacity="0.3"/>
</svg>
