<svg width="247" height="47" viewBox="0 0 247 47" fill="none" xmlns="http://www.w3.org/2000/svg">
<path d="M19.1424 35.8685C18.7846 35.4089 18.6454 34.8294 18.7448 34.2499C18.8442 33.6704 19.1821 33.1708 19.6592 32.8711C19.4405 32.4714 19.3213 32.0318 19.361 31.5722C19.4405 30.653 20.0766 29.9137 20.9115 29.6539C20.6729 29.2343 20.5736 28.7547 20.6332 28.2751C20.7127 27.5957 21.0904 27.0362 21.6271 26.6765C21.3488 26.3169 21.1898 25.8772 21.1898 25.3977C21.1898 24.9181 21.3488 24.4985 21.6072 24.1388C21.5277 24.1388 21.4681 24.1388 21.3885 24.1388C20.6928 24.1388 20.0567 23.9589 19.4803 23.6192C19.361 24.0588 19.202 24.5384 18.9635 25.038C18.4268 26.177 17.6913 27.0162 16.757 27.5558L13.3778 40.1247L18.5063 42.3428L20.0766 36.5079C19.6989 36.428 19.3809 36.1882 19.1424 35.8685Z" fill="#FFD705"/>
<path d="M34.7861 12.1293L32.9971 11.6498L30.7509 11.0503L30.2738 12.8487C30.075 13.3283 28.6438 13.3682 28.1469 13.2284C27.1331 12.9486 26.3181 12.2692 26.4175 11.7297L26.8747 9.99122L22.919 8.9921C18.2875 7.75319 13.5169 10.5307 12.3043 15.1866L14.0536 15.6462C15.4649 10.3709 21.1698 12.489 20.6331 14.4673L20.156 16.2657L19.8579 17.3847L20.1759 17.7844L23.6148 22.0606L23.6545 22.1205L24.4894 18.9833L24.8671 17.5845L24.9466 17.2648C25.1255 16.7453 26.1194 16.5455 27.1729 16.8452C27.6897 16.9851 28.9023 17.7244 28.8426 18.244L28.3656 20.0424L32.4007 21.1214L34.7861 12.1293Z" fill="#FFD705"/>
<path d="M25.9802 23.9589C25.9603 23.9589 25.9206 23.9589 25.9007 23.9589C25.1453 23.9989 24.1912 24.0588 23.416 24.0988C23.3563 24.0988 23.2768 24.0988 23.2172 24.1188C22.5413 24.1587 22.0046 24.7183 22.0046 25.4176C22.0046 25.7973 22.1637 26.137 22.442 26.3768C22.5612 26.3568 22.6805 26.3368 22.7997 26.3368H22.8196C22.8594 26.3368 22.8991 26.3368 22.9389 26.3368C23.734 26.3768 24.7279 26.4367 25.5628 26.4967L26.0796 26.4567C26.7157 26.3968 27.2126 25.8573 27.2126 25.2178C27.2126 24.5184 26.656 23.9589 25.9802 23.9589Z" fill="#151515"/>
<path d="M25.7218 27.3559C25.682 27.3559 25.6224 27.3559 25.5826 27.3559C24.7279 27.296 23.6943 27.236 22.8991 27.1961C22.8793 27.1961 22.8395 27.1961 22.8196 27.1961C22.7401 27.1961 22.6805 27.1961 22.6209 27.2161C22.5215 27.236 22.4221 27.256 22.3227 27.296C21.8655 27.4758 21.5475 27.8955 21.4679 28.395C21.4083 28.8546 21.6071 29.2942 21.9251 29.594C21.945 29.594 21.9649 29.594 21.9649 29.594C22.76 29.6139 23.6943 29.6339 24.4695 29.6539C24.867 29.6739 25.2646 29.7938 25.6025 30.0136H25.6224C25.6423 30.0136 25.6423 30.0136 25.6622 30.0136C26.338 30.0136 26.8946 29.514 26.9741 28.8346C27.0337 28.0753 26.4771 27.3959 25.7218 27.3559Z" fill="#151515"/>
<path d="M24.4297 30.4932C23.5949 30.4732 22.5612 30.4332 21.7264 30.4132C21.6866 30.4132 21.6468 30.4132 21.627 30.4132C21.6071 30.4132 21.6071 30.4132 21.5872 30.4132C21.5673 30.4132 21.5673 30.4132 21.5475 30.4132C20.8517 30.4132 20.2554 30.9528 20.1958 31.6721C20.156 32.0118 20.2753 32.3515 20.4542 32.6113C20.5536 32.5913 20.6728 32.5913 20.7722 32.5913C20.8517 32.5913 20.9312 32.5913 21.0108 32.6113C21.0505 32.6113 21.1101 32.6313 21.1499 32.6313C21.8854 32.7112 22.7998 32.8111 23.5352 32.911C23.8334 32.951 24.1117 33.0509 24.3502 33.1908H24.39C25.0857 33.1908 25.6423 32.6713 25.7019 31.9719C25.7417 31.5522 25.5628 31.1526 25.2845 30.8728C25.0658 30.633 24.7478 30.4932 24.4297 30.4932Z" fill="#151515"/>
<path d="M24.072 33.9701C23.8931 33.8103 23.6744 33.7104 23.416 33.6904C23.0781 33.6504 22.7004 33.6104 22.3029 33.5705C21.8059 33.5105 21.3289 33.4506 20.9114 33.4106H20.8916C20.8518 33.4106 20.812 33.4106 20.7723 33.4106H20.7524C20.5536 33.4106 20.3747 33.4506 20.1958 33.5505C19.8579 33.7103 19.6194 34.0301 19.5399 34.4297C19.4405 35.0092 19.7585 35.5487 20.2753 35.7685C20.3946 35.8085 20.5139 35.8485 20.653 35.8685L23.1974 36.0883C23.2371 36.0883 23.257 36.0883 23.2968 36.0883C23.8732 36.0883 24.3702 35.6686 24.4695 35.1091C24.5491 34.6495 24.3702 34.2299 24.072 33.9701Z" fill="#151515"/>
<path d="M15.6835 28.0353L15.8028 27.5558L15.9419 27.0562C16.3991 26.8564 16.7768 26.5966 17.0948 26.2769C18.7645 24.6783 18.9037 22.0006 18.9037 22.0006C19.6392 23.0397 20.5535 23.3395 21.3486 23.3395C22.3425 23.3395 23.1575 22.8999 23.1575 22.8999L19.3211 18.0641L19.3012 18.0441L14.2324 19.4229L10.555 26.2769L10.1177 26.5167L9.6804 26.7565L5.84399 28.8146V29.6139C5.84399 32.2916 6.79813 34.8294 8.46786 36.7876L14.133 33.8302L15.6835 28.0353Z" fill="#151515"/>
<path d="M35.1638 5.85485V0.539525H32.2219V4.61594L21.3686 0L10.1973 4.75581L0 8.99209L0.834866 11.0303L3.27983 9.99121V10.7106V23.3994V29.6139C3.27983 29.8138 3.27983 29.9936 3.29971 30.1934C3.41898 33.0909 4.45262 35.8085 6.14223 38.0065C7.51379 39.785 9.34255 41.2437 11.4893 42.1829L12.682 42.7024L17.8105 44.9205L21.3487 46.4591L31.2081 42.1829C36.1974 40.0248 39.4176 35.0891 39.4176 29.6139V23.3994V10.7106V10.0312L41.8029 11.0303L42.6378 8.99209L35.1638 5.85485ZM36.8733 10.7106V23.3994V29.6139C36.8733 34.05 34.2693 38.0465 30.2142 39.785L21.3686 43.6216L18.5062 42.3827L13.3777 40.1647L12.523 39.785C10.9328 39.0856 9.5612 38.0465 8.48781 36.7676C6.83795 34.8094 5.86394 32.2716 5.86394 29.594V28.7947V23.3794V10.7106V9.41172L21.3686 2.81752L31.228 7.01383L34.8258 8.53249L36.8733 9.41172V10.7106Z" fill="#151515"/>
<path d="M58.9029 21.3034V24.559H50.8716V21.3034H58.9029ZM51.9882 13.3663V32.9536H48.0465V13.3663H51.9882ZM61.7549 13.3663V32.9536H57.8536V13.3663H61.7549Z" fill="#FFD705"/>
<path d="M72.3019 16.864L68.0912 32.9536H63.9343L70.0553 13.3663H72.6517L72.3019 16.864ZM75.6247 32.9536L71.3871 16.864L70.997 13.3663H73.6337L79.8086 32.9536H75.6247ZM75.7727 25.6487V28.9177H66.9342V25.6487H75.7727Z" fill="#FFD705"/>
<path d="M95.3735 13.3663V32.9536H91.5663L85.4184 20.6981V32.9536H81.6785V13.3663H85.4318L91.6336 25.7563V13.3663H95.3735Z" fill="#FFD705"/>
<path d="M103.66 32.9536H100.203L100.23 29.698H103.66C104.611 29.698 105.351 29.5276 105.88 29.1868C106.409 28.846 106.781 28.3079 106.997 27.5724C107.221 26.837 107.333 25.8729 107.333 24.6801V21.6263C107.333 20.7205 107.275 19.9537 107.158 19.3259C107.042 18.6891 106.844 18.1779 106.566 17.7923C106.288 17.3976 105.916 17.1062 105.45 16.9178C104.983 16.7295 104.405 16.6353 103.714 16.6353H100.136V13.3663H103.714C104.844 13.3663 105.871 13.5501 106.795 13.9178C107.719 14.2856 108.512 14.8237 109.176 15.5322C109.84 16.2317 110.351 17.0972 110.71 18.1286C111.068 19.16 111.248 20.3348 111.248 21.6532V24.6801C111.248 26.0074 111.068 27.1823 110.71 28.2047C110.351 29.2271 109.84 30.0926 109.176 30.8011C108.521 31.5007 107.728 32.0343 106.795 32.402C105.862 32.7697 104.817 32.9536 103.66 32.9536ZM102.49 13.3663V32.9536H98.5483V13.3663H102.49Z" fill="#FFD705"/>
<path d="M116.441 13.3663L119.427 22.1913L122.387 13.3663H126.678L121.405 25.837V32.9536H117.436V25.837L112.163 13.3663H116.441Z" fill="#FFD705"/>
<path d="M132.436 13.3663V32.9536H128.494V13.3663H132.436ZM138.57 21.6936V24.9491H131.44V21.6936H138.57ZM139.324 13.3663V16.6353H131.44V13.3663H139.324Z" fill="#151515"/>
<path d="M141.638 13.3663H147.92C149.229 13.3663 150.346 13.5905 151.27 14.0389C152.194 14.4873 152.902 15.151 153.395 16.0299C153.889 16.9089 154.135 17.994 154.135 19.2855C154.135 20.3438 153.992 21.2496 153.705 22.003C153.418 22.7474 153.01 23.3707 152.481 23.8729C151.951 24.3662 151.319 24.7608 150.584 25.0568L149.386 25.7698H144.288L144.274 22.5007H147.812C148.351 22.5007 148.795 22.3841 149.144 22.151C149.503 21.9088 149.768 21.5725 149.938 21.142C150.117 20.7025 150.207 20.1913 150.207 19.6084C150.207 18.9895 150.126 18.4604 149.965 18.0209C149.812 17.5725 149.566 17.2317 149.225 16.9985C148.893 16.7564 148.458 16.6353 147.92 16.6353H145.579V32.9536H141.638V13.3663ZM150.53 32.9536L146.938 24.2227L151.068 24.2092L154.741 32.7652V32.9536H150.53Z" fill="#151515"/>
<path d="M160.969 13.3663V32.9536H157.055V13.3663H160.969Z" fill="#151515"/>
<path d="M175.566 29.698V32.9536H167.05V29.698H175.566ZM168.274 13.3663V32.9536H164.333V13.3663H168.274ZM174.422 21.3034V24.4648H167.05V21.3034H174.422ZM175.539 13.3663V16.6353H167.05V13.3663H175.539Z" fill="#151515"/>
<path d="M191.561 13.3663V32.9536H187.754L181.606 20.6981V32.9536H177.866V13.3663H181.619L187.821 25.7563V13.3663H191.561Z" fill="#151515"/>
<path d="M199.848 32.9536H196.391L196.417 29.698H199.848C200.799 29.698 201.538 29.5276 202.068 29.1868C202.597 28.846 202.969 28.3079 203.184 27.5724C203.408 26.837 203.521 25.8729 203.521 24.6801V21.6263C203.521 20.7205 203.462 19.9537 203.346 19.3259C203.229 18.6891 203.032 18.1779 202.754 17.7923C202.476 17.3976 202.103 17.1062 201.637 16.9178C201.171 16.7295 200.592 16.6353 199.902 16.6353H196.323V13.3663H199.902C201.032 13.3663 202.059 13.5501 202.982 13.9178C203.906 14.2856 204.7 14.8237 205.364 15.5322C206.027 16.2317 206.538 17.0972 206.897 18.1286C207.256 19.16 207.435 20.3348 207.435 21.6532V24.6801C207.435 26.0074 207.256 27.1823 206.897 28.2047C206.538 29.2271 206.027 30.0926 205.364 30.8011C204.709 31.5007 203.915 32.0343 202.982 32.402C202.05 32.7697 201.005 32.9536 199.848 32.9536ZM198.678 13.3663V32.9536H194.736V13.3663H198.678Z" fill="#151515"/>
<path d="M208.794 31.0298C208.794 30.4379 208.991 29.9446 209.386 29.55C209.781 29.1464 210.314 28.9446 210.987 28.9446C211.659 28.9446 212.193 29.1464 212.588 29.55C212.982 29.9446 213.18 30.4379 213.18 31.0298C213.18 31.6217 212.982 32.115 212.588 32.5096C212.193 32.9042 211.659 33.1015 210.987 33.1015C210.314 33.1015 209.781 32.9042 209.386 32.5096C208.991 32.115 208.794 31.6217 208.794 31.0298Z" fill="#151515"/>
<path d="M226.027 26.4289H229.942C229.888 27.8998 229.592 29.1419 229.054 30.1554C228.516 31.1598 227.749 31.9222 226.753 32.4423C225.767 32.9625 224.574 33.2226 223.175 33.2226C222.09 33.2226 221.126 33.0432 220.283 32.6845C219.44 32.3168 218.722 31.7787 218.13 31.0702C217.538 30.3617 217.09 29.4872 216.785 28.4469C216.489 27.3975 216.341 26.1913 216.341 24.8281V21.5052C216.341 20.142 216.498 18.9357 216.812 17.8864C217.135 16.8371 217.592 15.9582 218.184 15.2497C218.785 14.5322 219.507 13.9941 220.35 13.6353C221.202 13.2676 222.162 13.0838 223.229 13.0838C224.655 13.0838 225.848 13.3528 226.807 13.8909C227.767 14.4291 228.507 15.2138 229.027 16.2452C229.556 17.2676 229.875 18.5187 229.982 19.9985H226.054C226.027 19.0658 225.919 18.3348 225.731 17.8057C225.552 17.2676 225.265 16.8909 224.87 16.6757C224.475 16.4515 223.928 16.3393 223.229 16.3393C222.709 16.3393 222.26 16.4335 221.884 16.6219C221.507 16.8012 221.197 17.0927 220.955 17.4963C220.713 17.8999 220.534 18.429 220.417 19.0837C220.31 19.7384 220.256 20.5366 220.256 21.4783V24.8281C220.256 25.7518 220.305 26.5411 220.404 27.1958C220.502 27.8415 220.659 28.3706 220.875 28.7832C221.09 29.1957 221.381 29.4962 221.749 29.6845C222.126 29.8729 222.601 29.967 223.175 29.967C223.839 29.967 224.372 29.8684 224.776 29.6711C225.188 29.4738 225.493 29.1195 225.691 28.6083C225.888 28.0971 226 27.3706 226.027 26.4289Z" fill="#151515"/>
<path d="M239.493 16.864L235.283 32.9536H231.126L237.247 13.3663H239.843L239.493 16.864ZM242.816 32.9536L238.579 16.864L238.188 13.3663H240.825L247 32.9536H242.816ZM242.964 25.6487V28.9177H234.126V25.6487H242.964Z" fill="#151515"/>
</svg>
