<svg width="232" height="43" viewBox="0 0 384 86" fill="none" xmlns="http://www.w3.org/2000/svg">
<path d="M35.4341 66.3957C34.7718 65.545 34.5142 64.4723 34.6982 63.3996C34.8821 62.3269 35.5077 61.4022 36.3908 60.8473C35.986 60.1076 35.7652 59.2938 35.8388 58.443C35.986 56.7415 37.1635 55.3729 38.7089 54.8921C38.2673 54.1153 38.0833 53.2276 38.1937 52.3398C38.3409 51.0822 39.04 50.0465 40.0335 49.3807C39.5184 48.7149 39.224 47.9011 39.224 47.0134C39.224 46.1256 39.5184 45.3488 39.9967 44.683C39.8495 44.683 39.7391 44.683 39.592 44.683C38.3041 44.683 37.1267 44.3501 36.0596 43.7213C35.8388 44.5351 35.5445 45.4228 35.1029 46.3476C34.1094 48.4559 32.748 50.0095 31.0186 51.0082L24.7634 74.2744L34.2566 78.3802L37.1635 67.5794C36.4643 67.4314 35.8756 66.9876 35.4341 66.3957Z" fill="#FFD705"/>
<path d="M64.3922 22.4525L61.0806 21.5647L56.9227 20.4551L56.0396 23.7841C55.6716 24.6718 53.0224 24.7458 52.1025 24.4869C50.2259 23.969 48.7173 22.7114 48.9013 21.7127L49.7476 18.4946L42.4252 16.6452C33.8519 14.3518 25.021 19.4933 22.7764 28.1118L26.0144 28.9626C28.6269 19.1974 39.1872 23.1183 38.1938 26.7802L37.3107 30.1093L36.7587 32.1806L37.3475 32.9204L43.7131 40.8361L43.7867 40.9471L45.3321 35.1398L46.0312 32.5505L46.1784 31.9587C46.5095 30.997 48.3493 30.6271 50.2995 31.1819C51.2562 31.4409 53.5007 32.8095 53.3903 33.7712L52.5072 37.1002L59.9767 39.0976L64.3922 22.4525Z" fill="#FFD705"/>
<path d="M48.0918 44.3501C48.055 44.3501 47.9814 44.3501 47.9446 44.3501C46.5464 44.4241 44.7802 44.535 43.3452 44.609C43.2348 44.609 43.0876 44.609 42.9772 44.646C41.7261 44.72 40.7327 45.7557 40.7327 47.0503C40.7327 47.7531 41.027 48.3819 41.5422 48.8258C41.7629 48.7888 41.9837 48.7518 42.2045 48.7518H42.2413C42.3149 48.7518 42.3885 48.7518 42.4621 48.7518C43.9339 48.8258 45.7737 48.9368 47.3191 49.0477L48.2757 48.9738C49.4532 48.8628 50.3731 47.8641 50.3731 46.6804C50.3731 45.3858 49.3428 44.3501 48.0918 44.3501Z" fill="#151515"/>
<path d="M47.6134 50.6383C47.5398 50.6383 47.4294 50.6383 47.3558 50.6383C45.7736 50.5273 43.8602 50.4163 42.3884 50.3423C42.3516 50.3423 42.278 50.3423 42.2412 50.3423C42.094 50.3423 41.9837 50.3423 41.8733 50.3793C41.6893 50.4163 41.5053 50.4533 41.3213 50.5273C40.475 50.8602 39.8863 51.637 39.7391 52.5617C39.6287 53.4125 39.9967 54.2262 40.5854 54.7811C40.6222 54.7811 40.659 54.7811 40.659 54.7811C42.1308 54.818 43.8602 54.855 45.2952 54.892C46.0312 54.929 46.7671 55.1509 47.3926 55.5578H47.4294C47.4662 55.5578 47.4662 55.5578 47.503 55.5578C48.754 55.5578 49.7843 54.6331 49.9315 53.3755C50.0419 51.9699 49.0116 50.7122 47.6134 50.6383Z" fill="#151515"/>
<path d="M45.2217 56.4456C43.6763 56.4086 41.7629 56.3346 40.2175 56.2976C40.1439 56.2976 40.0703 56.2976 40.0335 56.2976C39.9967 56.2976 39.9967 56.2976 39.9599 56.2976C39.9231 56.2976 39.9231 56.2976 39.8863 56.2976C38.5985 56.2976 37.4946 57.2963 37.3842 58.6279C37.3106 59.2567 37.5314 59.8856 37.8626 60.3664C38.0466 60.3294 38.2673 60.3294 38.4513 60.3294C38.5985 60.3294 38.7457 60.3294 38.8929 60.3664C38.9664 60.3664 39.0768 60.4034 39.1504 60.4034C40.5119 60.5514 42.2045 60.7363 43.5659 60.9213C44.1178 60.9952 44.633 61.1802 45.0745 61.4391H45.1481C46.4359 61.4391 47.4662 60.4774 47.5766 59.1828C47.6502 58.406 47.319 57.6662 46.8039 57.1484C46.3991 56.7045 45.8104 56.4456 45.2217 56.4456Z" fill="#151515"/>
<path d="M44.5594 62.8817C44.2282 62.5858 43.8235 62.4009 43.3451 62.3639C42.7196 62.2899 42.0205 62.2159 41.2846 62.1419C40.3647 62.031 39.4816 61.92 38.7089 61.846H38.6721C38.5985 61.846 38.5249 61.846 38.4513 61.846H38.4145C38.0466 61.846 37.7154 61.92 37.3842 62.1049C36.7587 62.4008 36.3172 62.9927 36.17 63.7325C35.986 64.8052 36.5747 65.8039 37.5314 66.2107C37.7522 66.2847 37.973 66.3587 38.2305 66.3957L42.9404 66.8026C43.0139 66.8026 43.0507 66.8026 43.1243 66.8026C44.1914 66.8026 45.1113 66.0258 45.2953 64.9901C45.4425 64.1393 45.1113 63.3626 44.5594 62.8817Z" fill="#151515"/>
<path d="M29.0317 51.8959L29.2524 51.0082L29.51 50.0835C30.3563 49.7136 31.0554 49.2327 31.6441 48.6409C34.735 45.6817 34.9925 40.7252 34.9925 40.7252C36.354 42.6486 38.0466 43.2035 39.5184 43.2035C41.3582 43.2035 42.8668 42.3897 42.8668 42.3897L35.7652 33.4383L35.7284 33.4013L26.3456 35.9536L19.5384 48.6409L18.7289 49.0847L17.9194 49.5286L10.8179 53.3385V54.8181C10.8179 59.7746 12.5841 64.4723 15.6749 68.0972L26.1616 62.6228L29.0317 51.8959Z" fill="#151515"/>
<path d="M65.0913 10.8378V0.99871H59.6456V8.54452L39.5552 0L18.8761 8.80344L0 16.6452L1.54541 20.4181L6.07126 18.4946V19.8262V43.3144V54.8181C6.07126 55.188 6.07126 55.5209 6.10806 55.8908C6.32883 61.2542 8.2422 66.2847 11.3698 70.3535C13.9087 73.6456 17.2939 76.3458 21.2678 78.0843L23.4755 79.046L32.9688 83.1518L39.5184 86L57.769 78.0843C67.0047 74.0895 72.9655 64.9531 72.9655 54.8181V43.3144V19.8262V18.5686L77.381 20.4181L78.9264 16.6452L65.0913 10.8378ZM68.2557 19.8262V43.3144V54.8181C68.2557 63.0297 63.4355 70.4275 55.9292 73.6456L39.5552 80.7475L34.2566 78.4542L24.7634 74.3484L23.1812 73.6456C20.2375 72.351 17.6987 70.4275 15.7117 68.0602C12.6577 64.4353 10.8547 59.7376 10.8547 54.7811V53.3015V43.2774V19.8262V17.4219L39.5552 5.21548L57.8058 12.9832L64.4658 15.7944L68.2557 17.4219V19.8262Z" fill="#151515"/>
<path d="M109.035 39.4346V45.4609H94.168V39.4346H109.035ZM96.2349 24.7422V61H88.9385V24.7422H96.2349ZM114.314 24.7422V61H107.092V24.7422H114.314Z" fill="#FFD705"/>
<path d="M133.837 31.2168L126.043 61H118.348L129.679 24.7422H134.485L133.837 31.2168ZM139.988 61L132.144 31.2168L131.422 24.7422H136.303L147.733 61H139.988ZM140.262 47.478V53.5293H123.901V47.478H140.262Z" fill="#FFD705"/>
<path d="M176.545 24.7422V61H169.498L158.117 38.314V61H151.194V24.7422H158.142L169.622 47.6772V24.7422H176.545Z" fill="#FFD705"/>
<path d="M191.885 61H185.485L185.535 54.9736H191.885C193.645 54.9736 195.014 54.6582 195.994 54.0273C196.973 53.3965 197.662 52.4004 198.061 51.0391C198.476 49.6777 198.683 47.8931 198.683 45.6851V40.0322C198.683 38.3555 198.575 36.936 198.359 35.7739C198.144 34.5952 197.778 33.6489 197.264 32.9351C196.749 32.2046 196.06 31.665 195.197 31.3164C194.333 30.9678 193.263 30.7935 191.984 30.7935H185.36V24.7422H191.984C194.076 24.7422 195.977 25.0825 197.687 25.7632C199.397 26.4438 200.866 27.4399 202.095 28.7515C203.323 30.0464 204.27 31.6484 204.934 33.5576C205.598 35.4668 205.93 37.6416 205.93 40.082V45.6851C205.93 48.1421 205.598 50.3169 204.934 52.2095C204.27 54.1021 203.323 55.7041 202.095 57.0156C200.883 58.3105 199.414 59.2983 197.687 59.979C195.96 60.6597 194.026 61 191.885 61ZM189.718 24.7422V61H182.422V24.7422H189.718Z" fill="#FFD705"/>
<path d="M215.542 24.7422L221.07 41.0781L226.549 24.7422H234.493L224.731 47.8267V61H217.385V47.8267L207.623 24.7422H215.542Z" fill="#FFD705"/>
<path d="M245.151 24.7422V61H237.854V24.7422H245.151ZM256.506 40.1567V46.1831H243.308V40.1567H256.506ZM257.901 24.7422V30.7935H243.308V24.7422H257.901Z" fill="#151515"/>
<path d="M262.184 24.7422H273.813C276.237 24.7422 278.304 25.1572 280.014 25.9873C281.724 26.8174 283.036 28.0459 283.949 29.6729C284.862 31.2998 285.318 33.3086 285.318 35.6992C285.318 37.6582 285.053 39.335 284.521 40.7295C283.99 42.1074 283.235 43.2612 282.255 44.1909C281.276 45.104 280.105 45.8345 278.744 46.3823L276.528 47.7021H267.09L267.065 41.6509H273.614C274.61 41.6509 275.432 41.4351 276.08 41.0034C276.744 40.5552 277.233 39.9326 277.549 39.1357C277.881 38.3223 278.047 37.376 278.047 36.2969C278.047 35.1514 277.897 34.1719 277.599 33.3584C277.316 32.5283 276.86 31.8975 276.229 31.4658C275.615 31.0176 274.81 30.7935 273.813 30.7935H269.48V61H262.184V24.7422ZM278.645 61L271.996 44.8384L279.641 44.8135L286.439 60.6514V61H278.645Z" fill="#151515"/>
<path d="M297.969 24.7422V61H290.722V24.7422H297.969Z" fill="#151515"/>
<path d="M324.988 54.9736V61H309.225V54.9736H324.988ZM311.491 24.7422V61H304.194V24.7422H311.491ZM322.871 39.4346V45.2866H309.225V39.4346H322.871ZM324.938 24.7422V30.7935H309.225V24.7422H324.938Z" fill="#151515"/>
<path d="M354.597 24.7422V61H347.549L336.169 38.314V61H329.246V24.7422H336.194L347.674 47.6772V24.7422H354.597Z" fill="#151515"/>
<path d="M369.937 61H363.537L363.586 54.9736H369.937C371.696 54.9736 373.066 54.6582 374.045 54.0273C375.025 53.3965 375.714 52.4004 376.112 51.0391C376.527 49.6777 376.735 47.8931 376.735 45.6851V40.0322C376.735 38.3555 376.627 36.936 376.411 35.7739C376.195 34.5952 375.83 33.6489 375.315 32.9351C374.801 32.2046 374.112 31.665 373.249 31.3164C372.385 30.9678 371.314 30.7935 370.036 30.7935H363.412V24.7422H370.036C372.128 24.7422 374.029 25.0825 375.739 25.7632C377.449 26.4438 378.918 27.4399 380.146 28.7515C381.375 30.0464 382.321 31.6484 382.985 33.5576C383.649 35.4668 383.981 37.6416 383.981 40.082V45.6851C383.981 48.1421 383.649 50.3169 382.985 52.2095C382.321 54.1021 381.375 55.7041 380.146 57.0156C378.935 58.3105 377.465 59.2983 375.739 59.979C374.012 60.6597 372.078 61 369.937 61ZM367.77 24.7422V61H360.474V24.7422H367.77Z" fill="#151515"/>
</svg>